<svg id="Layer_1" enable-background="new 0 0 512 512" viewBox="0 0 512 512" xmlns="http://www.w3.org/2000/svg"><g clip-rule="evenodd" fill-rule="evenodd"><path d="m42.55 24.11h426.91c19 0 34.55 15.54 34.55 34.55v394.7c0 19-15.54 34.55-34.55 34.55h-426.91c-19 0-34.55-15.54-34.55-34.55v-394.71c0-19 15.54-34.54 34.55-34.54z" fill="#ebf5fc"/><path d="m42.55 24.11h426.91c19 0 34.55 15.54 34.55 34.55v49.57h-496.01v-49.58c0-19 15.54-34.54 34.55-34.54z" fill="#0593fc"/><path d="m31.26 108.22v345.13c0 19 15.54 34.55 34.55 34.55h-23.26c-19 0-34.55-15.54-34.55-34.55v-345.13z" fill="#d4dde3"/><path d="m42.55 24.11h23.26c-19 0-34.55 15.54-34.55 34.55v49.57h-23.26v-49.58c0-19 15.54-34.54 34.55-34.54z" fill="#0584e3"/><g fill="#056bb8"><path d="m72.7 79.08c7.11 0 12.93-5.79 12.93-12.93 0-7.11-5.82-12.93-12.93-12.93-7.14 0-12.93 5.82-12.93 12.93-.01 7.14 5.79 12.93 12.93 12.93z"/><path d="m122.84 79.08c7.11 0 12.93-5.79 12.93-12.93 0-7.11-5.82-12.93-12.93-12.93-7.14 0-12.96 5.82-12.96 12.93 0 7.14 5.82 12.93 12.96 12.93z"/><path d="m172.96 79.08c7.14 0 12.96-5.79 12.96-12.93 0-7.11-5.82-12.93-12.96-12.93-7.11 0-12.93 5.82-12.93 12.93-.01 7.14 5.82 12.93 12.93 12.93z"/></g><path d="m308.37 245.69c28.78 28.81 28.78 75.93 0 104.74-28.81 28.78-75.93 28.78-104.74 0-28.81-28.81-28.81-75.93 0-104.74 28.81-28.81 75.93-28.81 104.74 0z" fill="#ff4155"/><path d="m294.58 307.5-50.31 29.05c-3.49 2.03-7.47 2.03-10.93 0-3.49-2-5.46-5.44-5.46-9.45v-58.1c0-4.01 1.98-7.47 5.46-9.47 3.46-2 7.44-2 10.93 0l50.31 29.05c3.49 2.03 5.46 5.46 5.46 9.47.01 4.02-1.97 7.45-5.46 9.45z" fill="#fff"/></g><path d="m469.45 16.1h-426.9c-23.46 0-42.55 19.09-42.55 42.55v394.7c0 23.46 19.09 42.55 42.55 42.55h426.9c23.46 0 42.55-19.09 42.55-42.55v-394.7c0-23.46-19.09-42.55-42.55-42.55zm-426.9 15.99h426.9c14.65 0 26.56 11.91 26.56 26.56v41.56h-480.02v-41.56c0-14.64 11.92-26.56 26.56-26.56zm426.9 447.82h-426.9c-14.65 0-26.56-11.92-26.56-26.56v-337.15h480.02v337.15c0 14.64-11.92 26.56-26.56 26.56zm-396.77-392.83c11.55 0 20.95-9.4 20.95-20.95 0-11.54-9.4-20.92-20.95-20.92-11.54 0-20.92 9.38-20.92 20.92 0 11.56 9.39 20.95 20.92 20.95zm0-25.88c2.74 0 4.96 2.21 4.96 4.93 0 2.74-2.22 4.96-4.96 4.96-2.72 0-4.93-2.23-4.93-4.96 0-2.71 2.21-4.93 4.93-4.93zm50.15 25.88c11.55 0 20.95-9.4 20.95-20.95 0-11.54-9.4-20.92-20.95-20.92-11.54 0-20.92 9.38-20.92 20.92 0 11.56 9.38 20.95 20.92 20.95zm0-25.88c2.74 0 4.96 2.21 4.96 4.93 0 2.74-2.22 4.96-4.96 4.96-2.72 0-4.93-2.23-4.93-4.96 0-2.71 2.21-4.93 4.93-4.93zm50.14 25.88c11.54 0 20.92-9.4 20.92-20.95 0-11.54-9.38-20.92-20.92-20.92s-20.92 9.38-20.92 20.92c0 11.56 9.39 20.95 20.92 20.95zm0-25.88c2.72 0 4.93 2.21 4.93 4.93 0 2.74-2.21 4.96-4.93 4.96s-4.93-2.23-4.93-4.96c0-2.71 2.21-4.93 4.93-4.93zm47.54 4.93c0-4.42 3.58-7.99 7.99-7.99h223.74c4.42 0 7.99 3.58 7.99 7.99s-3.58 7.99-7.99 7.99h-223.74c-4.41.01-7.99-3.57-7.99-7.99zm-117.67 323.59c2.27 3.79 1.03 8.7-2.75 10.96-1.29.77-2.7 1.14-4.1 1.14-2.72 0-5.37-1.39-6.87-3.89-17.99-30.06-27.5-64.6-27.5-99.89s9.51-69.83 27.5-99.89c2.27-3.79 7.18-5.02 10.96-2.75 3.79 2.27 5.02 7.18 2.75 10.96-33.83 56.55-33.83 126.81.01 183.36zm32.18-19.25c2.27 3.79 1.03 8.7-2.76 10.96-1.29.77-2.7 1.13-4.1 1.13-2.72 0-5.37-1.39-6.87-3.89-14.51-24.26-22.18-52.14-22.18-80.63s7.67-56.38 22.18-80.65c2.27-3.79 7.17-5.02 10.96-2.76 3.79 2.27 5.02 7.17 2.76 10.96-26.71 44.71-26.71 100.22.01 144.88zm32.15-19.24c2.26 3.79 1.03 8.7-2.76 10.96-1.28.77-2.7 1.13-4.09 1.13-2.72 0-5.37-1.39-6.87-3.9-11.03-18.47-16.86-39.7-16.86-61.38 0-21.69 5.83-42.91 16.87-61.37 2.26-3.79 7.17-5.03 10.96-2.76 3.79 2.26 5.03 7.17 2.76 10.96-19.61 32.79-19.61 73.54-.01 106.36zm255.71-153.08c17.99 30.06 27.5 64.6 27.5 99.89s-9.51 69.83-27.5 99.89c-1.5 2.5-4.15 3.89-6.87 3.89-1.4 0-2.81-.37-4.1-1.14-3.79-2.27-5.02-7.18-2.75-10.96 33.84-56.55 33.84-126.81 0-183.36-2.27-3.79-1.03-8.7 2.75-10.96 3.79-2.27 8.7-1.04 10.97 2.75zm-10 99.9c0 28.49-7.67 56.37-22.18 80.63-1.5 2.5-4.15 3.89-6.87 3.89-1.4 0-2.81-.37-4.1-1.13-3.79-2.27-5.02-7.17-2.76-10.96 26.72-44.66 26.72-100.17 0-144.87-2.26-3.79-1.03-8.7 2.76-10.96s8.7-1.03 10.96 2.76c14.52 24.26 22.19 52.15 22.19 80.64zm-54.32-61.37c11.03 18.46 16.87 39.68 16.87 61.37s-5.83 42.91-16.86 61.38c-1.5 2.51-4.15 3.9-6.87 3.9-1.39 0-2.81-.37-4.09-1.13-3.79-2.26-5.03-7.17-2.76-10.96 19.6-32.81 19.6-73.56 0-106.35-2.27-3.79-1.03-8.7 2.76-10.96 3.78-2.28 8.68-1.04 10.95 2.75zm-160.57 3.35c-15.44 15.44-23.94 36.04-23.94 58.02s8.5 42.58 23.94 58c16 16 37 23.99 58.01 23.99 21 0 42.01-8 58-23.99 15.44-15.43 23.95-36.02 23.95-58s-8.5-42.58-23.94-58.02c-31.99-31.99-84.03-31.99-116.02 0zm104.71 104.71c-25.75 25.75-67.65 25.75-93.41 0-12.42-12.41-19.26-28.99-19.26-46.69 0-17.71 6.84-34.29 19.26-46.71 12.88-12.88 29.79-19.31 46.7-19.31s33.83 6.44 46.7 19.31c12.42 12.42 19.26 29.01 19.26 46.71.01 17.7-6.83 34.28-19.25 46.69zm-4.12-63.06-50.29-29.04c-5.94-3.46-13.02-3.46-18.89-.04-5.96 3.39-9.51 9.51-9.51 16.39v58.11c0 6.84 3.54 12.97 9.44 16.38 2.97 1.73 6.23 2.59 9.48 2.59s6.5-.86 9.45-2.58l50.31-29.05c5.93-3.42 9.47-9.55 9.47-16.39 0-6.89-3.55-13.01-9.46-16.37zm-8 18.9-50.34 29.07c-.97.56-1.91.56-2.9-.02-1.02-.59-1.47-1.37-1.47-2.54v-58.11c0-1.14.45-1.94 1.5-2.53.48-.28.95-.42 1.43-.42s.97.14 1.46.43l50.36 29.08c.98.55 1.43 1.35 1.43 2.49.01 1.18-.45 1.96-1.47 2.55z"/></svg>